<?xml version="1.0" encoding="UTF-8"?>
<svg width="256px" height="154px" viewBox="0 0 256 154" version="1.1" xmlns="http://www.w3.org/2000/svg" xmlns:xlink="http://www.w3.org/1999/xlink" preserveAspectRatio="xMidYMid">
    <defs>
        <linearGradient x1="-2.77777778%" y1="32%" x2="100%" y2="67.5555556%" id="linearGradient-1">
            <stop stop-color="#2298BD" offset="0%"></stop>
            <stop stop-color="#0ED7B5" offset="100%"></stop>
        </linearGradient>
    </defs>
    <g>
        <path d="M128,-1.0658141e-14 C93.8666667,-1.0658141e-14 72.5333333,17.0666667 64,51.2 C76.8,34.1333333 91.7333333,25.6 108.8,25.6 C120.565488,25.6 129.270208,30.6912 137.2192,38.4485517 C149.545067,50.5165483 163.657717,64 192,64 C226.133333,64 247.466667,46.9333333 256,12.8 C243.2,29.8666667 228.266667,38.4 211.2,38.4 C199.434512,38.4 190.729792,33.3088 182.7808,25.5514483 C170.454933,13.4834517 156.342283,0 128,-1.0658141e-14 Z M64,76.8 C29.8666667,76.8 8.53333333,93.8666667 0,128 C12.8,110.933333 27.7333333,102.4 44.8,102.4 C56.565488,102.4 65.2702083,107.4912 73.2192,115.2485517 C85.5450667,127.3165483 99.6577167,140.8 128,140.8 C162.133333,140.8 183.466667,123.733333 192,89.6 C179.2,106.666667 164.266667,115.2 147.2,115.2 C135.434512,115.2 126.729792,110.1088 118.7808,102.3514483 C106.454933,90.2834517 92.3422833,76.8 64,76.8 Z" fill="url(#linearGradient-1)"></path>
    </g>
</svg>
