<svg xmlns="http://www.w3.org/2000/svg" viewBox="0 0 800 450" width="800" height="450"><rect width="800" height="450" fill="#1A202C"/><path d="M400 100C310 100 240 170 240 260C240 350 310 420 400 420C490 420 560 350 560 260C560 170 490 100 400 100Z" fill="#4F46E5" fill-opacity="0.3"/><path d="M500 150H300V350H500V150Z" stroke="#FFFFFF" stroke-width="2" fill="none"/><text x="400" y="270" font-family="Arial" font-size="20" text-anchor="middle" fill="#FFFFFF">E-commerce Platform</text><rect x="320" y="200" width="160" height="30" rx="5" fill="#4F46E5" opacity="0.8"/><rect x="320" y="240" width="100" height="30" rx="5" fill="#4F46E5" opacity="0.5"/><rect x="430" y="240" width="50" height="30" rx="5" fill="#4F46E5" opacity="0.5"/><circle cx="350" cy="310" r="10" fill="#10B981"/><circle cx="380" cy="310" r="10" fill="#3B82F6"/><circle cx="410" cy="310" r="10" fill="#EC4899"/><text x="400" y="400" font-family="Arial" font-size="15" text-anchor="middle" fill="#FFFFFF">Next.js • TypeScript • MongoDB</text></svg>
