<svg xmlns="http://www.w3.org/2000/svg" viewBox="0 0 800 450" width="800" height="450"><rect width="800" height="450" fill="#1A202C"/><path d="M400 100C310 100 240 170 240 260C240 350 310 420 400 420C490 420 560 350 560 260C560 170 490 100 400 100Z" fill="#14B8A6" fill-opacity="0.3"/><path d="M350 150L250 250H350V350L450 250H350V150Z" stroke="#FFFFFF" stroke-width="2" fill="none"/><circle cx="500" cy="200" r="50" stroke="#FFFFFF" stroke-width="2" fill="none"/><path d="M500 170V200L520 230" stroke="#FFFFFF" stroke-width="2" fill="none"/><text x="400" y="130" font-family="Arial" font-size="20" text-anchor="middle" fill="#FFFFFF">Health & Fitness Tracker</text><rect x="280" y="280" width="60" height="40" rx="5" fill="#14B8A6" opacity="0.5"/><rect x="350" y="260" width="60" height="60" rx="5" fill="#14B8A6" opacity="0.8"/><rect x="420" y="300" width="60" height="20" rx="5" fill="#14B8A6" opacity="0.3"/><rect x="490" y="280" width="60" height="40" rx="5" fill="#14B8A6" opacity="0.6"/><text x="400" y="400" font-family="Arial" font-size="15" text-anchor="middle" fill="#FFFFFF">React Native • Redux • Chart.js</text></svg>
