<svg xmlns="http://www.w3.org/2000/svg" viewBox="0 0 800 450" width="800" height="450"><rect width="800" height="450" fill="#1A202C"/><path d="M400 100C310 100 240 170 240 260C240 350 310 420 400 420C490 420 560 350 560 260C560 170 490 100 400 100Z" fill="#F59E0B" fill-opacity="0.3"/><path d="M320 180H480C490 180 500 190 500 200V300C500 310 490 320 480 320H320C310 320 300 310 300 300V200C300 190 310 180 320 180Z" stroke="#FFFFFF" stroke-width="2" fill="none"/><circle cx="340" cy="220" r="15" fill="#F59E0B" opacity="0.8"/><circle cx="340" cy="280" r="15" fill="#F59E0B" opacity="0.5"/><rect x="370" y="200" width="100" height="10" rx="2" fill="#F59E0B" opacity="0.8"/><rect x="370" y="220" width="60" height="10" rx="2" fill="#F59E0B" opacity="0.6"/><rect x="370" y="260" width="100" height="10" rx="2" fill="#F59E0B" opacity="0.8"/><rect x="370" y="280" width="60" height="10" rx="2" fill="#F59E0B" opacity="0.6"/><text x="400" y="130" font-family="Arial" font-size="20" text-anchor="middle" fill="#FFFFFF">Smart Home Dashboard</text><rect x="520" y="190" width="40" height="40" rx="5" stroke="#FFFFFF" stroke-width="2" fill="none"/><rect x="520" y="250" width="40" height="40" rx="5" stroke="#FFFFFF" stroke-width="2" fill="none"/><circle cx="540" cy="210" r="10" fill="#F59E0B" opacity="0.9"/><path d="M530 270L550 290M550 270L530 290" stroke="#FFFFFF" stroke-width="2"/><text x="400" y="400" font-family="Arial" font-size="15" text-anchor="middle" fill="#FFFFFF">Vue.js • WebSockets • IoT</text></svg>
