<svg xmlns="http://www.w3.org/2000/svg" viewBox="0 0 800 450" width="800" height="450"><rect width="800" height="450" fill="#1A202C"/><path d="M400 100C310 100 240 170 240 260C240 350 310 420 400 420C490 420 560 350 560 260C560 170 490 100 400 100Z" fill="#8B5CF6" fill-opacity="0.3"/><rect x="250" y="150" width="300" height="200" rx="5" stroke="#FFFFFF" stroke-width="2" fill="none"/><text x="400" y="130" font-family="Arial" font-size="20" text-anchor="middle" fill="#FFFFFF">Task Management App</text><rect x="270" y="170" width="120" height="30" rx="5" fill="#8B5CF6" opacity="0.8"/><rect x="270" y="210" width="120" height="30" rx="5" fill="#8B5CF6" opacity="0.5"/><rect x="270" y="250" width="120" height="30" rx="5" fill="#8B5CF6" opacity="0.3"/><rect x="410" y="170" width="120" height="110" rx="5" fill="#8B5CF6" opacity="0.2"/><line x1="270" y1="300" x2="530" y2="300" stroke="#FFFFFF" stroke-width="1" stroke-dasharray="5,5"/><circle cx="290" cy="320" r="10" fill="#10B981"/><circle cx="320" cy="320" r="10" fill="#3B82F6"/><circle cx="350" cy="320" r="10" fill="#F59E0B"/><text x="400" y="400" font-family="Arial" font-size="15" text-anchor="middle" fill="#FFFFFF">React • Node.js • Socket.io</text></svg>
