<svg xmlns="http://www.w3.org/2000/svg" viewBox="0 0 128 128"><path fill="#DD0031" d="M64 6.96l-4.26 15.1-4.27-15.1z"/><path fill="#DD0031" d="M64 6.96v9.03l9.03-9.03z"/><path fill="#C3002F" d="M64 6.96l-4.26 15.1-4.27-15.1z"/><path fill="#C3002F" d="M64 6.96v9.03l-9.03-9.03z"/><path fill="#DD0031" d="M63.98 6.96L69.07 0H58.92l-24.8 86.36 29.87 41.6 29.91-41.6L63.98 6.96z"/><path fill="#C3002F" d="M63.98 6.96L69.07 0H58.92l-24.8 86.36 29.87 41.6 29.91-41.6L63.98 6.96z"/><path fill="#A2142F" d="M128 22.5L114.5 0H69.07l-5.09 6.96 30.07 80.36-30.07 41.6-30.07-41.6L64 6.96 58.91 0H13.5L0 22.5h13.5l10.16 17.63 40.34 70.45L64 128l64-110.5z"/></svg>
