<svg xmlns="http://www.w3.org/2000/svg" viewBox="0 0 128 128"><path fill="#FFCA28" d="M6.35 6.28h115.3v115.44H6.35z"/><path fill="#5D4037" d="M63.5 29.53c-4.66 1.45-8.88 3.05-13.22 4.37-1.66.51-2.39 1.46-2.23 3.03.3 2.97.27 5.96.39 8.95.03.68.04 1.38.59 1.87.66.59 1.32-.04 1.92-.31 4.51-2.02 9.03-4.04 13.55-6.06.25-.11.5-.22.66-.51.59-1.08.07-1.61-.93-2.01-.92-.38-.54-.99-.24-1.5.3-.51.88-.86 1.24-.25.96 1.63 2.42 1.36 3.93.66 3.76-1.76 7.53-3.5 11.3-5.24.26-.12.52-.24.79-.34.67-.25 1.33-.43 1.93.08.6.51.08 1.21.11 1.82.01.2-.23.48-.44.61-4.92 2.84-9.87 5.64-14.78 8.5-1.55.9-3.06 1.87-3.49 4.86h.91c.46-.03.93-.08 1.39-.08 5.2 0 10.4.01 15.6-.01 2.46-.01 4.57.73 5.88 2.88 2.95 4.84-1.21 11.17-6.77 10.35-.64-.1-1.26-.34-1.9-.49-.43-.1-.91-.24-1.1.24-.24.6.13.99.51 1.35.59.54 1.22 1.03 1.84 1.54 1.66 1.36 3.05 2.91 3.46 5.13.24 1.28.18 2.44-.37 3.56-.14.27-.35.57-.59.76-2.96 2.36-6.32 2.22-9.72 1.92-1.07-.09-2.14-.07-3.27-.09.3 1.12.52 2.08.81 3.01.34 1.1.82 2.15 1.27 3.2.59 1.36 1.21 2.71 1.85 4.05.35.73.16 1.57-.58 1.83-.83.3-1.24-.4-1.6-1.07-1.07-2.02-2.17-4.04-3.2-6.08-1.21-2.41-1.95-4.96-1.95-7.7 0-.82-.19-1.64-.29-2.54-.59.25-1.13.44-1.64.69-.34.17-.66.24-.96-.09-.29-.31-.09-.65.13-.9.37-.42.77-.82 1.16-1.22l-.08-.27c-.31.18-.63.36-.96.51-8.38 3.77-16.75 7.54-25.13 11.3-.41.19-.89.68-1.34.69-1.3.03-2.61-.12-3.88-.29-1.9-.24-3.58-.09-5.27.9-.14.08-.34 0-.63 0 .23-.53.46-1.05.71-1.61h-3.13v15.63h-1c0-5.54 0-11.03-.01-16.52 0-.56.06-1.1.77-1.42l.65.81c1.98-.5 4-.67 6.1-.77.61-.03 1.22.21 1.55.76.29.48-.03.84-.23 1.26-.08.17-.25.3-.39.44-.49.47-.93 1.01-1.48 1.38-1.8 1.22-1.86 2.87-.95 4.67.1.19.21.37.33.54.64.91 1.26 1.84 1.89 2.76.39.58.42 1.16.01 1.45-.44.31-1.02.2-1.44-.32-.75-.93-1.5-1.86-2.27-2.78-.52-.63-1.08-1.24-1.71-1.76-1.13-.93-2.47-1.01-3.83-.83-.54.07-.79.22-.74.86.05.64.01 1.28.01 1.93v9.67h16.09c-.25-.51-.5-1.04-.76-1.56-.84-1.67-1.9-3.24-2.47-5.01-.47-1.44-.44-2.93-.04-4.36.37-1.3 1.01-2.36 2.25-2.91.83-.37 1.88-.45 2.79-.31 1.52.23 2.3 1.3 2.73 2.66.59 1.87.27 3.63-.34 5.37-.42 1.2-.93 2.37-1.45 3.54-.37.82-.83 1.6-1.22 2.41-.21.43-.3.92-.6 1.3-.25.3-.86.7-1.17.6-.37-.11-.79-.69-.8-1.08-.01-.52.29-1.04.46-1.58h-1.77c.08.93.19 1.85.24 2.77.03.53.18 1.09-.32 1.52-.5.42-.98.29-1.46.06-.21-.1-.46-.23-.56-.42-.24-.47-.58-.88-1.1-.44s-.12.89.09 1.35c.28.59.26 1.07-.22 1.53-.53.51-1.1.56-1.75.19-.42-.23-.86-.47-1.19-.81-1.18-1.22-2.35-2.46-3.48-3.72-.33-.37-.59-.79-.77-1.25-.59-1.49-.21-2.48 1.15-3.44.25-.17.45-.42.68-.63-1.04-.32-2.01-.39-2.89-.88-.89-.5-1.23-1.37-1.37-2.32-.25-1.67.65-3.31 2.24-3.93 1.49-.58 3.03-.48 4.56-.09.56.14 1.11.36 1.77.59-.1-.16-.16-.28-.24-.39-1.75-2.49-.91-6.23 1.67-7.71 1.65-.95 3.47-1.3 5.37-.98 1.3.22 2.43.82 3.38 1.76-.11.25-.14.41-.22.5-1.27 1.38-.84 2.57.53 3.7.85.71 1.4 1.52 1.34 2.76-.01.29.34.61.6.83 4.63 3.83 9.28 7.65 13.94 11.46 1.28 1.05 2.64 2.01 4.36 1.96.75-.02 1.62-.28 2.18-.72.92-.73 1.35-1.78 1.25-3.17-.05-.7-.65-1.24-1-1.84-.12-.21-.33-.38-.33-.58.01-.46-.18-1.04.01-1.37.4-.68.92-.12 1.39.03 1.07.34 1.88 1.01 2.51 1.94.55.82.65 1.67.16 2.55-1.12 2.01-2.9 3.13-5.08 3.72-1.29.35-2.65.32-3.98.45-.24.02-.53-.05-.74.03-3.26 1.23-6.08-.04-8.51-2.12-2.17-1.85-4.44-3.61-6.67-5.39-.93-.74-1.87-1.46-2.8-2.19l-.03.01h-.33c0 .13.01.33-.01.54-.07.79.21 1.48.58 2.17.85 1.58.63 3.3.53 4.99-.07 1.22-.1 2.44-.16 3.65H96.2c1.15 0 2.29.02 3.44-.01.63-.02.91.26.89.89-.03.72-.27.95-.97.95H28.45c-.77 0-1.09-.32-1.09-1.1 0-.78.32-1.09 1.1-1.09H50.9c.01-.64.02-1.2.03-1.75.02-1.47.03-2.95.05-4.42.01-.6-.21-.97-.74-1.29-5.23-3.18-10.44-6.4-15.65-9.61-1.61-.99-3.25-1.96-4.82-3.02-1.1-.75-2.14-1.56-2.7-2.87-.27-.63-.26-1.29.35-1.73.27-.2.61-.3.93-.41 1.43-.48 2.88-.86 4.4-.88 1.01-.01 1.75.43 2.24 1.32.5.9 1.13 1.73 1.73 2.57.16.23.43.37.67.53.13.09.33.09.48.17.32.19.64.4.95.6l.18-.3c-1.13-.78-2.26-1.56-3.38-2.34-.46.61-1.14.74-1.88.64-2.3-.31-4.15-1.32-5.32-3.45-.78-1.42-.46-2.79.69-3.92.25-.24.28-.63.4-.95.13-.34.24-.7.4-1.02.56-1.14 1.36-1.59 2.63-1.43 1 .12 1.99.4 2.98.6.12.03.25.07.43.12.26-.6.53-1.22.79-1.84-.38-.29-.78-.6-1.18-.91-3.09-2.36-4.37-6.36-1.93-9.95.86-1.27 1.99-2.3 3.42-2.95.16-.07.32-.13.53-.22-1.99-.13-3.85-.12-5.62-.55-1.86-.45-2.26-1.33-1.48-3.08.56-1.27 1.48-2.23 2.64-2.94.94-.57 1.95-1.02 2.93-1.52.12-.06.28-.08.4-.16 4.86-3.23 9.92-1.7 14.97-.96 6.01.89 11.95 2.12 17.93 3.17.58.1 1.16.26 1.72.46 1.36.47 2.03 1.61 1.47 2.82-.21.46-.49.93-.86 1.3-.81.83-1.69 1.61-2.56 2.38-.25.22-.62.5-.58.72.04.26.46.53.77.66.21.09.53-.04.77-.16 4.9-2.43 9.79-4.87 14.69-7.31.27-.14.57-.37.68-.64.5-1.25 1.5-1.66 2.7-1.84.62-.09 1.25-.13 1.87-.22.71-.1 1.17.23 1.72.71 3.05 2.65 6.33 4.83 10.12 6.14.86.3 1.8.35 2.67.6 2.05.6 3.22 2.06 3.51 4.16.41 2.98-.21 5.77-1.68 8.36-1.14 2-2.56 3.81-3.89 5.69-.22.31-.7.73-.66.86.17.54.51 1.15.92 1.43.25.17.96-.05 1.27-.29 1.97-1.51 3.89-3.09 5.82-4.65.11-.09.2-.22.27-.36 1.34-2.78 2.67-5.56 4.02-8.33.56-1.15 1.17-2.28 1.71-3.44.66-1.42 1.66-2.38 3.13-2.87 1.42-.47 3.06-.11 3.98 1.06.85 1.07.81 2.65-.11 3.97-.87 1.23-2.14 1.76-3.5 2.04-1.6.33-3.25.51-5 .77.25.48.46.97.72 1.41 5.73 9.57 7.31 20 5.03 30.68-.73 3.44-1.28 6.9-1.8 10.37-.41 2.72-.57 5.48-.86 8.46h16.33c-.26-.52-.52-1.04-.77-1.56-.56-1.13-1.14-2.25-1.67-3.4-1.06-2.32-1.22-4.8-.86-7.33.49-3.4 3.12-5.32 6.56-5.01 2.58.24 4.42 1.68 5.58 3.98.96 1.89.85 3.84.38 5.81-.53 2.27-1.65 4.25-2.81 6.26-.09.15-.17.32-.29.56h14.14V56.917c0-.82-.19-1.49-.85-2.01-5.58-4.4-11.13-8.83-16.68-13.27-.23-.19-.35-.5-.52-.76.23-.41.47-.81.7-1.22-1.08-.5-2.19-.23-3.14-.59-2.23-.83-3.98-2.15-4.84-4.53-.44-1.22-.65-2.4.27-3.52.25-.31.3-.83.4-1.26.18-.76.62-1.29 1.4-1.44 1.04-.19 2.11-.26 3.17-.29 1.5-.05 2.76.57 3.84 1.59.83.79 1.28 1.84 1.88 2.79.03.05.12.06.37.18v-3.74c0-.93-.16-1.8-.81-2.52-.17-.19-.36-.37-.5-.57-.58-.83-.33-1.58.61-1.96.29-.12.6-.19.9-.29 4.44-1.47 8.9-2.9 13.31-4.48.97-.35 1.77-.75 2.09-1.9.29-1.07.71-2.11 1.02-3.18.27-.92.19-1.89.86-2.73.71.39 1.42.77 2.13 1.15.28.15.58.28.78.5 1.03 1.05 2.32 1.24 3.66 1.25 1.1.01 2.19.36 3.29.51 1.36.18 2.26 1.04 2.31 2.25.05 1.17-.68 2.12-1.91 2.49-.47.14-.95.24-1.4.35-3.71.96-7.41 1.92-11.12 2.88-1.71.44-3.42.89-5.13 1.32-.2.05-.45.01-.61.11-.16.1-.34.33-.32.48.03.22.23.44.39.63.13.16.33.28.5.41 5.62 4.38 11.24 8.75 16.87 13.13.62.48.96 1.03.95 1.87-.01 2.8-.01 5.61-.02 8.41v10.59l-.01 38.14H6.41V63.95z"/></svg>
