<svg xmlns="http://www.w3.org/2000/svg" viewBox="0 0 128 128"><path fill="#E10098" d="M44.03 57.483a4.156 4.156 0 00-6.389 4.861 4.154 4.154 0 006.389 1.295 4.154 4.154 0 000-6.156zM57.646 35.25a6.62 6.62 0 00-10.176 7.73 6.62 6.62 0 0010.176 2.06 6.62 6.62 0 000-9.79zM7.668 64.003c0 7.212 0 14.424 0 21.636 18.964 10.94 37.91 21.894 56.864 32.85 18.916-10.964 37.86-21.912 56.799-32.85 0-14.434-.016-28.808.002-43.243-.038-.323-.227-.626-.424-.895-18.893-10.92-37.817-21.814-56.711-32.738-.15-.158-.39-.317-.643-.317-.254 0-.76.287-.91.445C43.703 19.91 24.772 30.995 5.85 42.088c-1.285.747-1.752 1.793-1.753 3.24-.004 6.225-.002 12.45-.002 18.675h3.573zm9.558.153c0-5.372-.012-10.744.004-16.117.015-.976.341-1.78 1.147-2.268 15.58-9.41 31.14-18.858 46.698-28.303 5.11-3.079 10.146-2.945 15.05.038 11.306 6.868 22.63 13.72 33.966 20.541 4.532 2.729 9.064 5.458 13.611 8.17.833.497 1.153 1.124 1.15 2.066-.021 11.99-.01 23.979-.01 35.969 0 .189-.014.379-.024.632-1.074.634-2.25.652-3.257 1.302-32.6-18.851-65.322-37.028-97.936-55.842v33.812h-10.4zm30.93 41.44c-8.783-5.092-17.46-10.01-26.056-15.21v-13.67c20.616 11.962 41.25 23.932 61.897 35.909-3.306 1.97-6.443 3.822-9.568 5.693-8.297-4.255-16.588-8.51-26.274-12.721z"/></svg>
