<svg xmlns="http://www.w3.org/2000/svg" viewBox="0 0 128 128"><path fill="#64B5F6" d="M116 3H12a8.91 8.91 0 0 0-9 8.8v104.42a8.91 8.91 0 0 0 9 8.78h104a8.93 8.93 0 0 0 9-8.81V11.77A8.93 8.93 0 0 0 116 3z"/><path fill="#42A5F5" d="M96.14 118.32c-.23.11-.49.14-.73.21V37.37a.5.5 0 0 0-.5-.5H85.58a.5.5 0 0 0-.5.5v81.71c-.29 0-.57-.1-.86-.1a9 9 0 0 1-7.46-4L57.17 81.64a.5.5 0 0 0-.84.11l-14.43 36.41a.5.5 0 0 1-.47.32h-8.21a.5.5 0 0 1-.47-.32l-14.43-36.41a.5.5 0 0 0-.94 0l-14.43 36.41a.5.5 0 0 1-.47.32h-3a9 9 0 0 1-7.33-3.82v3.63a8.68 8.68 0 0 0 1.27 4.56 8.87 8.87 0 0 0 7.63 4.31h104.07a8.87 8.87 0 0 0 7.63-4.31 8.68 8.68 0 0 0 1.27-4.56v-11.2a9 9 0 0 1-8.28 11.33z"/><path fill="#FFF" d="M106.52 37.35a.5.5 0 0 0-.5-.5H94.69a.5.5 0 0 0-.5.5v49.89a10.2 10.2 0 0 0-2.5-.32 10.47 10.47 0 0 0-8.63 4.63L63.48 124.9c-.26.42-.93.41-1.18 0L42.68 91.54a10.47 10.47 0 0 0-8.65-4.62c-.87 0-1.69.15-2.5.32V37.33a.5.5 0 0 0-.5-.5H19.7a.5.5 0 0 0-.5.5v50.47a10.11 10.11 0 1 0 5.55 18.35 10.61 10.61 0 0 0 2.95-3.79l17.56-44.32 17.55 44.32a10.57 10.57 0 0 0 2.95 3.79 10.11 10.11 0 0 0 15.56-8.51 10 10 0 0 0-1.59-5.37l15.28-38.63 15.27 38.63a10 10 0 0 0-1.59 5.37 10.11 10.11 0 1 0 5.57-18.35 10.57 10.57 0 0 0 3 3.8l7.5 6.6V37.35zM24.8 100.13a4.11 4.11 0 1 1 0 8.21 4.11 4.11 0 0 1 0-8.21zm39.06 0a4.11 4.11 0 1 1 0 8.21 4.11 4.11 0 0 1 0-8.21zm39.06 0a4.11 4.11 0 1 1 0 8.21 4.11 4.11 0 0 1 0-8.21z"/></svg>
