<svg xmlns="http://www.w3.org/2000/svg" viewBox="0 0 128 128"><path fill="#777BB3" d="M64 33.039C30.26 33.039 2.906 46.901 2.906 64S30.26 94.961 64 94.961c33.74 0 61.094-13.862 61.094-30.961S97.74 33.039 64 33.039zM48.103 70.032c-1.868 1.681-4.494 2.61-7.74 2.61-2.29 0-4.22-.572-5.742-1.608-1.737-1.163-2.688-2.982-2.735-5.334h6.155c.102 1.482 1.219 2.448 2.942 2.448.806 0 1.483-.201 2.018-.547.576-.387.863-.917.863-1.613 0-.606-.22-1.064-.77-1.442-.508-.376-1.431-.834-2.76-1.329-3.292-1.17-5.554-2.267-6.785-3.292-1.174-1.11-1.809-2.544-1.809-4.251 0-2.071.833-3.696 2.374-4.829 1.59-1.15 3.636-1.746 6.134-1.746 2.717 0 4.8.701 6.331 2.042 1.483 1.36 2.24 3.031 2.234 5.24h-6.031c-.046-1.272-1.043-2.146-2.735-2.146-.666 0-1.219.172-1.655.47-.47.338-.744.84-.744 1.437 0 .562.265 1.015.714 1.27.466.283 1.569.742 3.32 1.376 3.257 1.101 5.475 2.16 6.647 3.165 1.219 1.068 1.81 2.493 1.81 4.251 0 2.099-.844 3.797-2.536 5.078zm19.099 2.006c-1.236.387-4.286.763-7.123-.267-2.698-.976-4.65-3.157-4.65-6.693V54.903h-2.877v-4.797h2.877v-7.203h6.155v7.203h3.747v4.798h-3.747v9.68c0 2.225.667 3.158 2.919 3.004.316-.02 1.868-.176 1.868-.176l.831 4.625zm20.547.498h-6.001v-3.096h-.076c-1.485 2.371-3.614 3.643-6.358 3.643-2.146 0-3.842-.691-5.128-2.14-1.189-1.421-1.825-3.383-1.825-5.81v-14.437h6.155v13.612c0 2.637 1.15 3.908 3.252 3.908 1.087 0 1.956-.358 2.602-1.118.669-.736.977-1.74.977-3.088v-13.314h6.155l.247 21.84z"/></svg>
