<svg xmlns="http://www.w3.org/2000/svg" viewBox="0 0 128 128"><path fill="#FF6C37" d="M63.951.001c-16.346 0-29.817 12.591-30.971 28.832a1.962 1.962 0 01-1.957 1.801H15.834a1.962 1.962 0 00-1.957 2.124C15.341 55.894 36.907 74.108 63.951 74.108c27.043 0 48.61-18.214 50.073-41.35a1.962 1.962 0 00-1.957-2.124H96.878a1.963 1.963 0 01-1.958-1.801C93.767 12.592 80.297.001 63.951.001z"/><path fill="#FFF" d="M63.951 18.151c-10.586 0-19.198 8.62-19.198 19.213 0 10.592 8.612 19.212 19.198 19.212s19.198-8.62 19.198-19.212c0-10.592-8.612-19.213-19.198-19.213zm58.074 56.241H6.004a3.586 3.586 0 00-3.326 4.884c4.452 12.175 12.647 23.013 23.456 31.038 10.784 8.005 23.572 12.335 36.818 12.335s26.034-4.33 36.818-12.335c10.81-8.024 19.003-18.862 23.458-31.038a3.586 3.586 0 00-3.327-4.884h.001z"/><path fill="#FF6C37" d="M26.867 85.051h.023c.562 0 1.098.244 1.469.666l6.926 7.929c.615.747.585 1.847-.163 2.461-.331.273-.748.421-1.175.421-.472 0-.92-.196-1.242-.539l-4.028-4.611v18.638a1.744 1.744 0 01-3.486 0v-23.22c0-.962.78-1.743 1.742-1.745h-.066z"/><path fill="#FF6C37" d="M46.147 85.051c.963 0 1.743.781 1.743 1.744v23.22a1.744 1.744 0 01-3.486 0v-23.22c0-.963.78-1.744 1.743-1.744zm14.759 13.954v-12.21c0-.962.78-1.743 1.743-1.744h.057c.963 0 1.743.781 1.743 1.744V98.86c0 6.838-3.874 11.145-10.308 11.386a1.742 1.742 0 01-1.8-1.683c0-.918.706-1.679 1.623-1.742 4.578-.173 6.942-2.808 6.942-7.816z"/><path fill="#FF6C37" d="M73.036 85.051c.963 0 1.743.781 1.743 1.744v23.22a1.744 1.744 0 01-3.486 0v-23.22c0-.963.78-1.744 1.743-1.744zm14.273 0a1.743 1.743 0 110 3.486H83.8v6.332h3.509a1.743 1.743 0 110 3.486H83.8V108.271H87.309a1.743 1.743 0 110 3.486h-5.01a1.744 1.744 0 01-1.743-1.743v-23.22a1.744 1.744 0 011.743-1.743h5.01z"/></svg>
