<svg xmlns="http://www.w3.org/2000/svg" viewBox="0 0 128 128"><path fill="#3776AB" d="M63.39 0a63.39 63.39 0 1 0 63.39 63.39A63.4 63.4 0 0 0 63.39 0zm9.7 110.78c-22.73 1.45-27.03-10.94-27.03-10.94-3.74-9.44-9.1-11.93-9.1-11.93-7.48-5.08-.56-4.98-.56-4.98 8.25.58 12.6 8.44 12.6 8.44 7.35 12.54 19.27 8.93 23.97 6.82a17.34 17.34 0 0 1 5.2-10.91c-18.19-2.06-37.33-9.06-37.33-40.4 0-8.93 3.2-16.23 8.44-21.95-1.93-2.06-3.7-10.3.76-21.55 0 0 7-2.2 22.73 8.45a78.74 78.74 0 0 1 41.55 0c15.73-10.65 22.7-8.45 22.7-8.45 4.5 11.24 1.7 19.47.85 21.53 5.28 5.72 8.44 13.02 8.44 21.95 0 31.44-19.2 38.3-37.43 40.3a19.42 19.42 0 0 1 5.53 15.13c0 11-.1 19.8-.1 22.45 0 2.15 1.45 4.71 5.66 3.87 32.66-10.85 56.13-41.57 56.13-77.8 0-45.34-36.88-82.05-82.22-82.05-45.35 0-82.03 36.71-82.03 82.05 0 36.26 23.5 66.99 56.13 77.84 3.31.92 4.8-1.37 4.8-3.07.07-1.63.19-7.13.19-13.95z"/></svg>
