<svg xmlns="http://www.w3.org/2000/svg" viewBox="0 0 128 128">
  <path fill="#61DAFB" d="M64 81.7c7.3 7.1 14.5 11.3 20.3 11.3 1.9 0 3.7-.4 5.2-1.3 5.2-3 7.1-10.5 5.3-21.2-.3-1.9-.7-3.8-1.2-5.8 2-.6 3.8-1.2 5.6-1.8 10.1-3.9 15.7-9.3 15.7-15.2 0-6-5.6-11.4-15.7-15.2-1.8-.7-3.6-1.3-5.6-1.8.5-2 .9-3.9 1.2-5.8 1.7-10.9-.2-18.5-5.4-21.5-1.5-.9-3.3-1.3-5.2-1.3-5.7 0-13 4.2-20.3 11.3-7.2-7.1-14.4-11.3-20.2-11.3-1.9 0-3.7.4-5.2 1.3-5.2 3-7.1 10.5-5.3 21.2.3 1.9.7 3.8 1.2 5.8-2 .6-3.8 1.2-5.6 1.8-10.1 3.9-15.7 9.3-15.7 15.2 0 6 5.6 11.4 15.7 15.2 1.8.7 3.6 1.3 5.6 1.8-.5 2-.9 3.9-1.2 5.8-1.7 10.7.2 18.3 5.3 21.2 1.5.9 3.3 1.3 5.2 1.3 5.8.2 13-4 20.3-11zm-5.6-13.5c1.8.1 3.7.1 5.6.1 1.9 0 3.8 0 5.6-.1-1.8 2.4-3.7 4.6-5.6 6.7-1.9-2.1-3.8-4.3-5.6-6.7zm-12.4-10.3c1 1.7 1.9 3.3 3 4.9-3.1-.4-6-.9-8.8-1.5.9-2.7 1.9-5.5 3.1-8.3.8 1.6 1.7 3.3 2.7 4.9zm-5.8-24.1c2.8-.6 5.7-1.1 8.8-1.5-1 1.6-2 3.2-3 4.9-1 1.7-1.9 3.3-2.7 4.9-1.3-2.8-2.3-5.6-3.1-8.3zm5.5 13.7c1.3-2.7 2.7-5.4 4.3-8.1 1.5-2.6 3.2-5.2 4.9-7.8 3-.2 6-.3 9.1-.3 3.2 0 6.2.1 9.1.3 1.8 2.6 3.4 5.2 4.9 7.8 1.6 2.7 3 5.4 4.3 8.1-1.3 2.7-2.7 5.4-4.3 8.1-1.5 2.6-3.2 5.2-4.9 7.8-3 .2-6 .3-9.1.3-3.2 0-6.2-.1-9.1-.3-1.8-2.6-3.4-5.2-4.9-7.8-1.6-2.7-3-5.4-4.3-8.1zm39.1-5.4l-2.7-4.9c-1-1.7-1.9-3.3-3-4.9 3.1.4 6 .9 8.8 1.5-.9 2.8-1.9 5.6-3.1 8.3zm0 10.8c1.2 2.8 2.2 5.6 3.1 8.3-2.8.6-5.7 1.1-8.8 1.5 1-1.6 2-3.2 3-4.9.9-1.5 1.8-3.2 2.7-4.9zm2.3 34.7c-.8.5-1.8.7-2.9.7-4.9 0-11-4-17-10 2.9-3.1 5.7-6.6 8.5-10.5 4.7-.4 9.2-1.1 13.4-2.1.5 1.8.8 3.6 1.1 5.4 1.4 8.5.3 14.6-3.1 16.5zm5.2-52.7c11.2 3.2 17.9 8.1 17.9 12.6 0 3.9-4.6 7.8-12.7 10.9-1.6.6-3.4 1.2-5.2 1.7-1.3-4.1-2.9-8.3-4.9-12.6 2-4.3 3.7-8.5 4.9-12.6zm-8-28.2c1.1 0 2 .2 2.9.7 3.3 1.9 4.5 7.9 3.1 16.5-.3 1.7-.7 3.5-1.1 5.4-4.2-.9-8.7-1.6-13.4-2.1-2.7-3.9-5.6-7.4-8.5-10.5 6-5.9 12.1-10 17-10zm-14.7 20.1c-1.8-.1-3.7-.1-5.6-.1s-3.8 0-5.6.1c1.8-2.4 3.7-4.6 5.6-6.7 1.9 2.1 3.8 4.4 5.6 6.7zm-28.7-19.4c.8-.5 1.8-.7 2.9-.7 4.9 0 11 4 17 10-2.9 3.1-5.7 6.6-8.5 10.5-4.7.4-9.2 1.1-13.4 2.1-.5-1.8-.8-3.6-1.1-5.4-1.4-8.5-.3-14.5 3.1-16.5zm-5.2 52.7c-11.2-3.2-17.9-8.1-17.9-12.6 0-3.9 4.6-7.8 12.7-10.9 1.6-.6 3.4-1.2 5.2-1.7 1.3 4.1 2.9 8.3 4.9 12.6-2 4.3-3.7 8.6-4.9 12.6zm2.1 11c.3-1.7.7-3.5 1.1-5.4 4.2.9 8.7 1.6 13.4 2.1 2.7 3.9 5.6 7.4 8.5 10.5-6 5.9-12.1 10-17 10-1.1 0-2-.2-2.9-.7-3.4-1.9-4.5-8-3.1-16.5zm-4.2-43.7c2.8.6 5.7 1.1 8.8 1.5-1-1.6-2-3.2-3-4.9-1-1.7-1.9-3.3-2.7-4.9-1.3 2.7-2.3 5.5-3.1 8.3zm22.3 65.7c2-.1 3.9-.4 5.7-.7-2.7 3.6-5.6 6.7-8.6 9.2 1-.8 1.9-1.7 2.9-2.7 4.9-4.7 8.5-9.9 11.1-15 3.6.4 7.1.6 10.6.6 5.9 0 11.7-.5 17.1-1.5 1.9 5.1 2.8 9.9 2.8 14.2 0 7.2-2.9 11.1-7.8 11.1-7.3 0-16.3-8.1-23.7-20.2zm-11.3 43.5c-1.9 1-4.1-.5-3.4-2.4 2.2-6 4.2-12.1 6.3-17.9 5.4-14.8 8.7-29 10-41.3-.2 16.4-4.6 34-10 49.5-1.3 3.8-2.3 7.7-2.9 12.1zm-11.4-44.9c-8 13.8-18.7 23.3-26.8 21.2-2.4-.6-4.6-2.2-6.4-4.8-6.4-8.9-5.4-25.8 2-44.6-1.5 7.2-2.3 14.8-2.3 22.7 0 9.3 1.2 18.3 3.4 26.5-.1.3 0 .5-.1.8-1.8 3.1-5 5.1-8.6 5.1-5.6 0-10.1-4.5-10.1-10.1 0-2.9 1.2-5.5 3.1-7.3 3.5-3.3 5.9-7.7 6.9-12.6.8-3.7.8-7.6 0-11.3-2.3-11.2-11.1-19.5-21.6-21.2 6.9-1.3 13.2-4.6 18.1-9.6 5.3-5.3 8.5-12 9.6-19.2.3.3.5.6.8.9 9.1 9.1 11.1 22.4 5.1 33.3 10-6.4 16.7-17.5 16.7-30.3v-.7c0-.7 0-1.4-.1-2.1 0-.1 0-.3.1-.5 1.3-9.8-1.9-19.5-8.9-26.5 5.1-1.1 10.3-1.7 15.6-1.7 6.6 0 12.9.8 19 2.4-3.7-1.5-7.6-2.7-11.5-3.7-12-2.9-24.1-2-35.8 2.7-6.7 2.7-12.9 6.7-18.3 11.7-16.9 15.7-20.3 41-8 59.9 1.2 1.9.9 4.2-.4 5.9-4 4.9-10.7 5.4-15.3 1-4.7-4.4-4.9-11.9-.4-16.7 5.6-5.9 8.8-13.8 8.8-22.1 0-17.7-14.3-32-32-32-4.8 0-9.4 1.1-13.5 3-4 1.9-8.8 1.9-12.8 0-9.8-4.6-17.9-11.9-23.2-21-1.8-3.1.8-6.9 4.4-6.5 3.7.5 7.3 1.5 10.8 3.1-5-4.2-9.1-9.6-11.9-15.5-1.1-2.4-.2-5.2 2.2-6.4 1.2-.6 2.7-.7 3.9-.1 18.6 8.3 39.6 12.9 61.7 13 -12.4 2.7-24.3 7.9-35 15.2-13.1 9-23.7 21.3-30.9 35.4-4.5 8.9-7.1 18.6-7.7 28.5 0 .4-.1.8-.1 1.1 0 6.3 1.2 12.3 3.3 17.9-7.1-4.3-14.6-8-22.3-11.4-4-1.8-3.8-7.3.3-8.9 5.2-1.9 10.6-3.5 16.2-4.7-5.4-1.9-10.6-4.1-15.6-6.7-2.4-1.3-3.3-4.3-1.9-6.7.7-1.3 2-2.1 3.4-2.2-10.3-8.4-20.6-17.4-31.8-25.3 2.7-.5 5.5-.9 8.2-1.1-.1 0-.1-.1-.2-.1-8.8-5.5-13.5-15.5-13.5-26.1 0-4.9 1.7-10.5 4.9-15.3.7-1 1.4-2.1 2.2-3.1 2.2-2.7 4.9-2.9 7.2-.8 2 1.8 3.8 3.8 5.4 5.9 3 3.9 5.5 7.9 7.7 12 2.9 5.4 5.1 11.1 7.2 16.9 4.2 11.5 7.1 23.5 9.7 35.5 1.2 5.7 2.3 11.4 3.3 17.1.1.4.1.8.2 1.3.3 1.8.6 3.9.6 6.1 0 4.7-.9 9.3-2.5 13.5-1.1 3.1-2.6 6-4.4 8.7 18-1.7 35.1-7.1 51-16 5.6-3.1 11-6.7 16.1-10.9-5.5 9-12.6 16.9-20.9 23.3-4.6 3.5-9.5 6.5-14.6 9-2.9 1.4-5.9 2.7-9 3.8-.6.2-1.3.5-1.9.7-.6.2-1.3.4-1.9.6-1.9.6-3.9 1.1-5.8 1.6-7 1.7-14.3 2.6-21.7 2.6C44.3 175.9 0 131.6 0 76.4c0-11.5 2-22.5 5.6-32.8 1.9-5.4 4.2-10.5 7-15.4 3.2-5.7 7-11.1 11.2-16.1.1-.1.1-.1.2-.2 10.5-12 24.1-21.4 39.8-27 0 0 0 .1.1.1 3.6 6.8 9.4 12.5 16.4 16.4-7.7-2.5-14.9-6.2-21.6-10.9 15.6-8.3 33.4-13 52.3-13 61.1 0 110.6 49.5 110.6 110.6 0 4.3-.2 8.5-.7 12.7-2 17.2-8.1 33.2-17.2 47 1.7-4.8 3-9.8 3.9-14.9.2-1.4.4-2.8.6-4.2 9.3-25.5 8.8-54.3-2.7-79.9 12.6 26.2 17.8 53.6 10.5 82-2.7 10.3-6.9 19.5-12.5 27.5zM63.5 142.9c-9.9 0-17.9-8-17.9-17.9 0-9.9 8-17.9 17.9-17.9 9.9 0 17.9 8 17.9 17.9 0 9.9-8 17.9-17.9 17.9zm274.7-170.6L301.5 9.6c-6.7-2.7-13.8-4.6-21.5-5.5V3c0-1.7-1.3-3-3-3h-20c-1.7 0-3 1.3-3 3v1.1c-15 1.8-25.6 8.3-32.5 17.2-17.5-3.9-31.8-9.1-42.3-15.2L177.3 0l-1.9 5.4c-13 36.4-4.4 80 10.8 110.9-4.1-1.1-8.3-2.2-12.4-3.7-1.6-.6-3.1-.2-3.9 1.4-.8 1.6-.3 3.1 1.3 3.9 19.1 9.3 41.8 16.8 66.2 21 .8.9 1.7 1.7 2.5 2.6 20 20 46.3 31.1 74.6 31.1 11.2 0 22.2-1.8 32.5-5.1 7.3-2.3 14.2-5.4 20.6-9.2 43.5-25.9 58.1-82.6 32.2-126.1z"/>
</svg>
