<svg xmlns="http://www.w3.org/2000/svg" viewBox="0 0 128 128"><path fill="#CF649A" d="M121.09 73.36a48.8 48.8 0 01-2.16 14.91 39.36 39.36 0 01-6.32 13.44A35.9 35.9 0 01100 111.6a50.9 50.9 0 01-17.1 2.74 60.5 60.5 0 01-7-.4 42.75 42.75 0 01-3.17-.42l-2.46-.45-.8-.17c-.24-.06-.5-.1-.74-.16-1.14-.28-2.33-.59-3.57-.94a71 71 0 01-7.8-2.77 82.3 82.3 0 01-16.27-9.17 158.23 158.23 0 01-16.12-13.15C17.51 79.8 9.37 70.09 6.79 61.13a43.76 43.76 0 01-1.34-10.14 36.42 36.42 0 012-11.8 39.43 39.43 0 016.35-11.95 34.77 34.77 0 0110.88-8.7c4.44-2.05 9.69-3.3 16.17-3.3a62.15 62.15 0 017 .4c2.36.26 4.55.61 6.54 1.09 5.66 1.35 11 3.78 15.84 7.04 3.29 2.23 6.38 4.83 9.21 7.77 1.81 1.87 3.53 3.88 5.16 6a93.2 93.2 0 018.71 13.06 55.08 55.08 0 003.5 6.55c1.37 2.15 2.66 3.69 3.9 4.61a9.62 9.62 0 003.81 1.86 5.6 5.6 0 001.91.08v.02h.21a8.5 8.5 0 001.3-.31 5.24 5.24 0 001.86-1 8.3 8.3 0 002.24-2.5 17.32 17.32 0 001.81-3.75 32.64 32.64 0 00.76-11.6 26 26 0 00-3.08-10.64c-1.5-2.3-3.55-4.33-6.1-6.1a34.09 34.09 0 00-10.3-4.76 54.17 54.17 0 00-14.57-2c-10.7 0-19.95 2.43-27.7 7.26a43.63 43.63 0 00-14 14.06 52.5 52.5 0 00-6.9 28.81 45.28 45.28 0 005.29 21.88c5.8 12.35 15.59 21.38 29.1 26.89 10.05 4.09 21.87 6.17 35.18 6.17 11.92 0 22.05-1.97 30.2-5.85 8.47-4.04 15-10.23 19.53-18.46 3.84-7 5.82-15.36 5.9-24.84v-2.17z"/></svg>
